<svg width="1366" height="1070" viewBox="0 0 1366 1070" fill="none" xmlns="http://www.w3.org/2000/svg">
<path fill-rule="evenodd" clip-rule="evenodd" d="M367.674 754.716C337.659 754.81 303.906 792.267 286.505 808.267C252.087 839.904 220.304 872.808 188.013 905.407C155.722 938.006 123.519 970.693 88.0684 1001.78C65.056 1021.96 39.1377 1045.68 6.27792 1059.37C-63.7482 1088.53 -53.3494 996.586 -54.8812 972.771C-58.7939 912.184 -57.0083 842.691 -93.4744 785.901C-115.244 752 -151.754 738.481 -204.965 745.763C-222.27 748.109 -242.184 755.056 -259.043 749.171C-277.048 742.888 -287.438 728.43 -294.406 716.432C-319.79 672.667 -322.731 622.349 -325.917 576.043C-329.419 526.112 -328.395 475.712 -328.666 426.132C-328.78 405.11 -340.045 383.154 -349.201 363.135C-361.202 336.89 -374.682 310.956 -387.715 284.929C-416.321 227.669 -446.45 168.667 -453.715 108.086C-458.267 70.1481 -452.113 28.6835 -412.522 -0.788273C-392.644 -15.5857 -363.093 -23.3307 -336.841 -31.8853C-305.128 -42.2412 -273.109 -52.1863 -241.895 -63.2111C-141.364 -98.7262 -43.1256 -149.432 -38.1887 -231.733C-37.4447 -244.184 -39.8693 -256.411 -40.3245 -268.803C-40.6046 -276.695 -37.7599 -283.718 -25.444 -286.652C5.44624 -294.027 54.2108 -270.845 78.7199 -261.34C132.369 -240.528 183.61 -217.059 236.182 -195.074C270.95 -180.529 318.463 -155.352 360.706 -155.088C398.345 -154.853 425.551 -188.415 444.09 -206.686C461.448 -223.807 485.738 -254.827 521.049 -256.705C538.17 -257.614 552.359 -250.045 563.371 -242.142C582.628 -228.289 596.213 -212.33 618.184 -199.868C654.23 -179.432 703.826 -162.358 752.398 -165.133C786.054 -167.058 808.095 -179.93 829.164 -196.306C838.022 -203.189 844.29 -208.774 858.671 -209.138C881.508 -209.725 905.676 -203.728 926.85 -198.788C1002.63 -181.116 1075.9 -156.015 1144.32 -128.092C1178.51 -114.14 1212.59 -99.0666 1241.76 -80.5668C1260.91 -68.4507 1283.7 -52.1101 1283.68 -33.6279C1283.68 -12.2296 1272.16 10.4125 1263.54 31.2123C1247.45 70.0601 1228.84 108.438 1209.75 146.664C1165.58 235.066 1117.83 322.636 1066.51 409.375C1030.3 470.472 994.032 532.865 945.889 590.307C936.435 601.509 925.411 612.083 912.968 621.885C899.899 632.358 894.052 645.354 889.693 658.533C862.636 740.323 883.408 829.93 896.433 912.061C899.733 932.908 903.05 953.754 905.361 974.66C907.348 992.632 913.046 1014.15 904.486 1031.61C887.636 1066.03 825.531 1035.94 800.226 1023.22C711.126 978.438 635.743 920.657 558.784 867.099C522.134 841.635 485.581 815.977 446.856 791.898C426.724 779.359 393.986 754.634 367.674 754.716Z" stroke="#F45B0F" stroke-opacity="0.1"/>
<path fill-rule="evenodd" clip-rule="evenodd" d="M362.614 739.283C330.854 753.01 307.379 777.094 285.287 797.086C253.483 825.856 223.446 855.53 192.543 884.758C163.32 912.394 133.765 940.089 100.579 965.683C80.3412 981.289 56.1403 1000.87 26.2086 1008.26C-38.6682 1024.3 -28.8251 938.034 -30.5225 916.739C-34.7222 863.797 -35.6847 803.774 -69.8423 754.795C-91.1734 724.211 -126.547 711.646 -175.658 718.169C-192.649 720.424 -207.155 724.487 -224.059 719.343C-243.623 713.396 -255.82 699.715 -264.429 687.174C-291.403 647.889 -297.134 601.452 -301.903 558.867C-306.828 514.873 -310.302 469.035 -306.697 426.456C-305.262 409.429 -313.408 389.83 -319.655 372.979C-329.28 347.051 -340.383 321.387 -350.707 295.588C-371.705 243.157 -391.934 189.363 -394.235 134.818C-395.897 95.4389 -386.886 54.3805 -352.054 21.6182C-316.733 -11.5845 -261.979 -26.3158 -209.929 -44.7285C-119.941 -76.5279 -10.5301 -119.477 8.48232 -193.045C11.3696 -204.201 9.80353 -214.922 10.5122 -226.066C10.871 -231.796 12.0083 -238.319 20.434 -241.226C42.3075 -248.771 82.301 -228.097 99.0561 -221.14C145.358 -201.917 189.394 -180.304 234.803 -160.16C270.859 -144.16 310.923 -123.881 353.664 -117.692C405.53 -110.183 442.435 -159.25 478.955 -176.506C542.283 -206.42 578.366 -149.744 608.56 -121.802C643.225 -89.7149 706.466 -63.2292 760.1 -91.993C780.608 -102.996 792.831 -116.535 819.595 -121.45C861.452 -129.135 909.285 -123.323 950.661 -117.087C1012.86 -107.693 1074.39 -92.8268 1130.6 -72.6175C1170.85 -58.1386 1233.96 -34.1189 1229.22 1.05655C1226.07 24.7358 1214.53 48.8085 1204.32 71.8654C1189.06 106.389 1171.65 140.478 1153.58 174.385C1111.97 252.657 1066.08 330.065 1015.62 405.953C981.171 457.732 840.401 602.168 835.379 613.036C820.418 645.44 823.051 682.283 825.37 715.691C828.45 760.132 836.429 804.349 843.822 848.531C847.322 869.562 851.601 890.699 853.324 911.842C854.549 926.891 855.599 946.654 842.554 959.835C817.102 985.563 758.866 956.899 734.228 945.045C658.694 908.73 593.283 862.793 526.403 819.72C493.567 798.583 460.783 777.124 425.312 757.936C410.99 750.197 382.23 730.798 362.614 739.283Z" stroke="#F45B0F" stroke-opacity="0.1"/>
<path fill-rule="evenodd" clip-rule="evenodd" d="M346.326 720.291C282.77 757.781 235.501 809.523 182.421 854.18C155.772 876.594 128.396 899.148 96.6528 918.48C80.1468 928.536 59.2736 941.093 36.265 943.03C-25.2868 948.208 -16.9637 870.459 -19.3005 847.188C-23.8339 802.197 -27.2734 751.37 -58.6837 710.552C-77.8853 685.614 -109.401 673.333 -150.823 677.994C-169.202 680.061 -184.815 683.278 -202.862 677.994C-221.144 672.64 -234.045 661.486 -243.715 650.192C-271.529 617.734 -280.421 577.397 -287.046 540.853C-294.762 497.983 -297.775 454.791 -296.06 411.626C-294.581 373.82 -311.218 336.195 -322.185 299.282C-336.704 250.38 -349.385 200.592 -347.469 150.552C-345.946 111.032 -333.982 71.2003 -302.187 37.4154C-269.805 3.08468 -221.337 -17.556 -169.036 -36.1656C-89.9717 -64.2971 15.9783 -99.3557 46.0059 -161.072C50.3818 -170.048 50.8632 -178.414 51.6246 -187.672C51.9921 -192.169 52.1059 -197.975 59.0986 -200.205C75.9372 -205.571 108.582 -185.735 119.959 -180.199C156.279 -162.528 190.963 -143.373 226.802 -125.262C260.26 -108.355 295.127 -89.9395 334.336 -79.4371C396.78 -62.7238 433.293 -116.157 492.797 -114.66C529.738 -113.727 556.23 -90.004 574.556 -71.2184C597.092 -48.0886 611.909 -14.7851 653.034 -3.20844C683.666 5.41535 701.493 -8.11626 724.738 -18.5364C764.121 -36.1949 817.508 -37.3984 863.096 -35.5609C924.7 -33.0836 987.215 -23.4031 1043.84 -6.92452C1069.51 0.542776 1096.21 9.68903 1116.15 23.156C1134.83 35.7717 1139.62 47.7124 1135.8 64.5725C1124.07 116.186 1091.38 168.299 1062.18 217.793C1025.5 279.979 984.992 341.309 939.421 400.806C908.343 441.377 875.463 482.864 832.526 518.475C821.332 527.756 809.167 537.261 794.403 544.047C783.306 549.178 774.142 551.356 767.806 560.003C749.033 585.634 753.943 621.285 755.895 648.747C759.002 692.659 767.272 736.359 774.72 780C779.096 805.467 792.863 853.441 759.842 873.776C731.328 891.329 682.712 870.148 657.594 859.329C594.073 831.96 538.324 796.755 480.92 764.091C454.612 749.122 428.103 733.565 398.854 721.201C391.398 718.043 381.517 712.983 372.459 712.114C362.079 711.139 354.158 715.689 346.326 720.291Z" stroke="#F45B0F" stroke-opacity="0.1"/>
<path fill-rule="evenodd" clip-rule="evenodd" d="M361.121 717.069C304.926 751.71 258.759 793.444 206.173 830.633C182.595 847.308 157.86 864.147 129.097 876.853C113.63 883.687 94.1592 890.944 74.9341 889.059C19.755 883.652 24.7386 819.706 21.5067 793.872C16.7596 755.485 11.9773 711.385 -17.7756 677.443C-37.2635 655.208 -66.0442 646.87 -103.163 651.021C-142.98 655.478 -171.883 645.514 -194.095 622.839C-221.921 594.409 -233.263 558.523 -241.321 525.514C-250.983 485.745 -255.266 445.472 -254.117 405.186C-252.996 366.006 -262.788 328.048 -269.156 289.126C-277.59 237.522 -281.751 184.263 -264.461 133.241C-249.405 88.8178 -216.228 48.6926 -164.92 18.6134C-111.37 -12.8044 -43.9025 -28.3577 15.3406 -53.8689C52.2931 -69.7804 101.175 -91.9683 115.539 -121.701C120.33 -131.618 113.866 -149.69 137.435 -141.769C150.915 -137.243 162.739 -128.77 173.757 -122.077C191.563 -111.262 208.879 -100.088 226.44 -89.0914C263.874 -65.6528 302.106 -40.5526 346.433 -22.9854C402.243 -0.850226 445.195 -33.7535 501.784 -29.7434C532.238 -27.5886 556.543 -13.3915 575.636 1.62754C588.004 11.3447 598.715 21.9778 608.709 32.834C619.149 44.1717 627.102 57.5877 640.599 67.4752C659.807 81.5665 682.544 75.4486 707.374 72.8064C751.012 68.1561 795.338 67.1346 839.349 69.7651C893.293 72.9826 948.779 80.5273 997.801 96.4211C1016.89 102.604 1037.12 110.436 1049.91 122.067C1062.71 133.699 1061.83 145.729 1057.98 159.057C1046.59 198.589 1020.1 238.039 994.989 275.54C963.554 322.476 928.424 368.49 888.458 412.431C860.869 442.763 831.063 473.194 793.655 498.57C782.768 505.951 771.111 512.973 758.095 518.651C749.17 522.549 737.653 524.639 730.944 530.288C710.002 547.961 716.256 583.441 717.473 604.168C719.899 645.531 731.434 686.244 734.237 727.555C735.77 750.101 739.624 785.412 710.992 801.969C684.077 817.54 641.685 803.437 615.751 794.131C564.758 775.841 519.327 751.269 471.926 729.246C452.421 720.192 432.013 710.269 409.74 704.404C389.893 699.19 375.529 708.191 361.121 717.069Z" stroke="#F45B0F" stroke-opacity="0.1"/>
<path fill-rule="evenodd" clip-rule="evenodd" d="M362.04 708.548C312.59 736.122 268.694 769.362 218.439 797.135C189.009 813.391 139.532 841.387 98.0411 828.815C52.448 815.022 51.2061 766.945 47.5328 739.155C43.1597 706.078 37.1862 667.235 8.71785 638.929C-0.281821 629.976 -12.1939 622.349 -27.8843 619.117C-44.6767 615.656 -59.37 619.44 -76.1799 619.932C-111.444 620.965 -139.755 606.85 -159.197 588.17C-186.686 561.77 -199.683 528.759 -208.744 497.577C-218.963 462.251 -224.002 426.337 -223.787 390.352C-223.612 355.962 -224.749 321.935 -226.061 287.51C-227.81 242.489 -224.985 196.835 -207.152 153.163C-189.572 110.143 -156.626 71.0298 -108.164 40.3061C-60.8743 10.3333 -3.07179 -9.88911 55.8065 -27.6006C89.2251 -37.6502 139.165 -54.6283 156.045 -78.5995C163.558 -89.2592 163.042 -99.7194 182.58 -88.385C207.183 -74.1114 226.923 -54.8747 247.966 -38.3424C278.332 -14.4945 309.293 9.95191 345.396 29.969C368.451 42.7524 390.823 48.4489 420.674 47.5689C443.413 46.8884 465.917 43.8025 488.744 45.3631C542.322 49.018 579.064 77.3129 613.279 102.328C635.284 118.421 652.067 133.117 683.37 141.4C720.365 151.198 760.615 155.31 799.027 161.857C841.209 169.05 885.088 177.357 922.241 193.056C955.319 207.031 970.152 224.026 961.24 249.464C947.351 289.141 913.137 328.248 881.485 363.471C849.282 399.322 813.073 434.558 768.81 464.266C744.907 480.306 716.841 491.253 691.162 505.497C658.924 523.414 671.134 563.947 673.863 588.035C678.393 628.022 712.293 753.845 602.495 742.235C556.666 737.389 514.37 718.305 473.928 704.348C457.145 698.563 437.003 690.192 417.77 688.883C396.823 687.458 376.926 700.259 362.04 708.548Z" stroke="#F45B0F" stroke-opacity="0.1"/>
<path fill-rule="evenodd" clip-rule="evenodd" d="M366.239 693.99C321.427 715.061 279.092 740.278 230.693 758.358C199.348 770.087 157.468 781.605 124.303 766.475C86.8765 749.397 78.1522 711.742 73.3831 684.073C68.474 655.566 64.3437 621.535 35.9655 598.235C26.9261 590.823 14.7366 584.712 0.140581 583.574C-13.8604 582.478 -27.8613 585.574 -42.116 584.548C-74.1257 582.249 -100.5 569.236 -119.629 552.458C-176.219 502.827 -188.802 428.958 -190.281 369.076C-191.016 339.103 -187.157 308.256 -184.392 278.089C-180.804 238.944 -173.104 199.741 -154.544 162.407C-115.096 83.0322 -27.6075 29.83 81.2586 -7.32716C115.526 -19.0209 152.602 -27.9701 180.14 -46.2964C194.36 -55.7441 204.572 -53.6797 217.54 -44.021C237.807 -28.92 253.295 -10.4998 270.21 6.26078C294.266 30.0997 318.68 54.4489 347.495 75.5316C367.359 90.0637 386.497 100.379 416.284 103.511C437.522 105.745 459.162 105.223 480.531 106.566C521.125 109.123 561.413 117.879 595.085 133.378C621.774 145.694 646.031 160.355 669.159 175.509C699.269 195.207 729.861 211.868 765.599 226.828C812.905 246.662 900.166 274.53 877.073 321.246C851.591 372.771 786.845 421.065 724.112 454.123C703.05 465.224 677.218 474.337 661.686 489.309C638.47 511.723 639.284 534.465 639.38 561.125C639.512 601.039 652.436 687.891 563.25 688.829C527.915 689.199 494.505 678.948 460.518 674.039C422.453 668.503 396.779 679.599 366.239 693.99Z" stroke="#F45B0F" stroke-opacity="0.1"/>
<path fill-rule="evenodd" clip-rule="evenodd" d="M370.235 678.296C311.83 699.138 215.86 745.874 150.915 710.328C116.593 691.551 103.694 658.34 96.008 630.48C89.7907 608.06 87.4559 581.022 61.1001 564.081C41.7223 551.63 13.5214 557.158 -10.7358 552.387C-40.808 546.467 -65.415 532.877 -83.9095 516.178C-135.598 469.512 -151.461 404.627 -154.836 348.491C-158.334 290.19 -141.973 225.95 -110.502 171.087C-71.2476 102.682 3.08049 51.4334 97.206 15.5936C114.581 8.98071 132.411 2.97225 149.996 -3.37659C161.793 -7.64239 173.204 -13.9678 185.613 -17.33C206.302 -22.9278 223.214 -16.3324 236.698 -5.75886C256.111 9.45018 269.927 28.1329 284.495 45.4719C304.433 69.1832 324.012 93.4226 347.403 115.479C363.143 130.301 380.099 145.815 407.408 151.12C426.033 154.74 445.761 155.491 465.051 155.362C506.412 155.08 539.86 156.535 577.741 169.48C639.932 190.779 695.853 223.533 742.382 258.134C778.899 285.29 835.624 328.259 811.21 367.825C789.349 403.324 737.022 424.09 694.716 447.479C674.149 458.85 655.366 471.624 640.736 486.634C622.294 505.557 614.555 523.371 611.539 545.792C606.458 583.527 605.138 640.426 537.63 652.091C512.717 656.398 486.912 653.939 461.676 656.198C428.307 659.15 399.695 667.781 370.235 678.296Z" stroke="#F45B0F" stroke-opacity="0.1"/>
<path fill-rule="evenodd" clip-rule="evenodd" d="M372.397 656.624C308.492 671.465 227.953 690.963 171.156 655.117C143.641 637.754 128.26 613.331 116.766 589.694C108.528 572.765 106.103 545.885 80.7775 535.506C62.1398 527.883 36.4287 526.827 16.4604 519.931C-10.9928 510.455 -33.6049 496.101 -51.3058 479.26C-97.4317 435.386 -115.255 378.243 -120.359 326.131C-131.433 212.9 -43.2345 97.6863 101.875 37.095C145.13 19.0284 191.168 -4.29217 235.359 24.904C283.569 56.78 306.154 104.799 340.41 142.844C353.488 157.38 369.211 175.904 392.891 184.014C407.125 188.893 424.984 189.227 440.654 189.45C480.564 190.036 516.456 192.259 553.697 203.019C611.247 219.637 664.341 246.136 707.832 276.165C745.755 302.353 790.323 339.7 762.983 377.733C741.973 406.894 697.379 425.388 664.507 448.046C627.897 473.261 603.228 504.445 591.174 538.69C579.478 572.003 571.59 608.54 521.902 626.097C504.857 632.119 482.788 638.411 463.923 640.668C432.818 644.313 402.208 649.649 372.397 656.624Z" stroke="#F45B0F" stroke-opacity="0.1"/>
<path fill-rule="evenodd" clip-rule="evenodd" d="M372.848 632.459C308.317 639.325 241.029 640.088 190.169 608.187C166.441 593.299 149.584 574.479 134.311 555.448C123.073 541.446 113.594 526.986 95.1705 516.528C78.1122 506.84 58.3056 499.475 40.8009 490.12C17.6034 477.781 -2.47796 463.017 -18.6713 446.395C-59.186 404.729 -78.1348 354.043 -84.7078 305.552C-87.9024 282.079 -89.5654 256.615 -80.8568 233.3C-72.4546 210.783 -59.1684 188.518 -43.6768 167.814C-10.7767 123.801 37.405 85.6563 98.3214 58.0042C140.105 39.0433 180.734 28.7912 223.121 53.3447C270.9 81.0261 297.262 124.429 328.272 160.203C349.54 184.739 370.388 212.238 415.586 216.822C451.549 220.472 485.683 223.435 519.677 232.878C569.819 246.931 615.241 267.593 653.247 293.639C687.871 317.459 717.253 347.594 698.759 381.666C684.081 408.661 651.199 429.605 627.69 453.19C601.433 479.475 586.957 508.354 575.316 538.764C564.813 566.093 548.674 591.826 514.408 609.49C507.406 613.105 499.783 616.902 491.95 619.689C481.955 623.246 472.047 622.97 460.844 623.668C431.278 625.488 402.054 629.355 372.848 632.459Z" stroke="#F45B0F" stroke-opacity="0.1"/>
<path fill-rule="evenodd" clip-rule="evenodd" d="M367.573 605.815C306.278 605.229 248.35 595.345 200.581 568.275C180.147 556.702 163.315 542.882 144.59 530.148C129.494 519.894 115.468 510.204 103.028 498.414C73.5731 470.446 35.4565 447.717 9.22731 417.995C-25.8385 378.32 -45.221 332.872 -52.9706 287.777C-56.7577 265.757 -58.0814 243.01 -53.8034 220.732C-50.1302 201.598 -37.2348 183.274 -24.0413 166.275C1.80215 132.958 38.5336 100.608 85.0045 78.9756C187.458 31.2816 261.946 125.315 305.568 173.578C325.635 195.773 348.874 229.689 388.621 238.781C417.016 245.28 445.893 249.239 473.41 257.61C547.312 280.093 634.231 325.734 622.659 386.555C617.715 412.581 597.631 436.302 584.148 460.598C570.262 485.615 562.521 511.436 554.027 537.439C546.093 561.74 534.802 581.109 504.531 596.805C490.075 604.308 472.77 603.645 455.036 604.313C425.905 605.404 396.608 606.079 367.573 605.815Z" stroke="#F45B0F" stroke-opacity="0.1"/>
<path fill-rule="evenodd" clip-rule="evenodd" d="M359.722 581.553C267.203 571.782 166.198 535.492 112.468 482.131C49.2632 419.363 -3.95988 351.363 -19.2602 276.369C-26.3548 241.599 -29.8453 203.512 -6.64555 170.704C10.9992 145.735 37.3746 116.732 74.4662 102.991C165.192 69.373 237.416 144.15 279.389 186.753C301.985 209.69 324.004 238.886 357.001 256.174C376.133 266.204 401.441 271.324 422.454 279.422C486.131 303.962 537.491 344.357 546.676 394.676C550.919 417.942 545.67 441.378 541.497 464.467C537.228 488.103 534.91 512.032 528.953 535.521C524.194 554.271 516.137 576.368 486.21 583.274C448.497 591.983 397.505 585.541 359.722 581.553Z" stroke="#F45B0F" stroke-opacity="0.1"/>
<path fill-rule="evenodd" clip-rule="evenodd" d="M344.86 557.762C257.876 543.511 173.029 513.334 121.101 462.604C93.5657 435.702 74.5579 404.472 55.7779 374.489C34.4938 340.502 17.9726 304.993 9.77763 268.725C-0.431028 223.568 -9.63285 150.433 67.1072 126.84C143.278 103.424 210.694 162.596 249.112 197.588C273.723 220.023 296.312 244.033 323.217 265.468C337.803 277.091 354.657 286.045 371.765 295.88C419.166 323.065 456.691 361.82 476.723 401.321C496.142 439.605 504.74 486.967 498.322 527.379C495.564 544.817 486.257 557.28 459.799 562.554C423.018 569.861 380.791 563.653 344.86 557.762Z" stroke="#F45B0F" stroke-opacity="0.1"/>
<path fill-rule="evenodd" clip-rule="evenodd" d="M321.432 534.122C244.846 519.965 174.895 489.429 128.93 444.889C77.4017 394.961 48.7691 330.671 34.2087 271.581C26.4752 240.172 5.50649 172.106 65.5179 156.097C125.529 140.087 184.669 186.369 217.225 213.007C256.677 245.336 294.77 280.192 330.168 315.007C360.946 345.256 392.412 377.533 416.179 410.296C429.662 428.775 440.671 448.024 449.075 467.815C455.248 482.471 464.455 501.106 459.86 516.471C448.256 555.226 358.051 540.893 321.432 534.122Z" stroke="#F45B0F" stroke-opacity="0.1"/>
<path fill-rule="evenodd" clip-rule="evenodd" d="M298.498 504.941C153.665 473.878 82.4338 375.464 57.6055 280.707C51.8423 258.688 31.0632 196.962 75.3063 184.655C118.203 172.728 169.075 210.659 193.177 228.417C267.863 283.444 323.239 351.429 378.099 415.851C395.223 435.959 432.382 472.226 415.241 497.169C396.596 524.252 328.53 511.376 298.498 504.941Z" stroke="#F45B0F" stroke-opacity="0.1"/>
<path fill-rule="evenodd" clip-rule="evenodd" d="M270.622 473.123C163.963 446.11 102.79 367.54 82.6239 295.303C77.6894 277.609 62.3262 232.673 92.0902 219.273C119.623 206.871 159.519 236.466 175.372 247.538C210.674 272.188 239.755 301.4 267.708 330.26C293.57 356.944 320.08 383.916 341.952 411.993C353.466 426.782 378.033 454.518 360.255 471.324C341.13 489.417 294.305 479.121 270.622 473.123Z" stroke="#F45B0F" stroke-opacity="0.1"/>
<path fill-rule="evenodd" clip-rule="evenodd" d="M239.46 438.062C169.807 417.473 124.578 362.33 109.548 313.687C105.512 300.598 95.0429 272.309 113.644 261.268C130.775 251.103 155.889 267.486 167.488 274.756C218.898 306.981 264.819 354.171 293.023 397.407C300.114 408.278 314.032 427.82 299.72 439.003C285.022 450.474 255.453 442.791 239.46 438.062Z" stroke="#F45B0F" stroke-opacity="0.1"/>
<path fill-rule="evenodd" clip-rule="evenodd" d="M210.202 400.867C175.615 389.265 149.52 358.943 141.214 333.825C135.373 316.148 140.419 294.9 170.525 310.305C200.402 325.61 227.689 354.006 239.787 378.075C249.012 396.437 239.91 410.829 210.202 400.867Z" stroke="#F45B0F" stroke-opacity="0.1"/>
<path fill-rule="evenodd" clip-rule="evenodd" d="M449.753 1341.68C381.422 1342.43 310.407 1366.77 240.782 1354.75C183.599 1344.87 178.825 1295.17 152.918 1265.36C132.336 1241.66 95.8753 1228.22 60.8923 1215.4C29.4855 1203.89 -2.86569 1193.55 -33.7567 1181.42C-53.7269 1173.57 -92.9417 1160.09 -93.65 1143.06C-94.332 1126.76 -63.7733 1111.81 -45.7091 1102.35C-22.1627 1090 2.94007 1079.06 26.8624 1067.07C67.2139 1046.87 97.0819 1022.63 125.35 994.874C157.514 963.29 188.58 931.185 218.547 898.558C240.677 874.536 262.641 850.35 286.957 827.259C302.214 812.776 330.841 780.809 358.969 780.662C372.39 780.592 387.254 789.117 397.983 794.865C416.143 804.591 432.747 815.676 448.992 826.796C479.254 847.508 508.143 869.099 537.381 890.455C575.328 918.174 612.654 944.651 655.734 969.018C700.326 994.212 746.387 1018.28 791.818 1042.84C822.596 1059.48 857.159 1076.09 876.045 1100.08C899.653 1130.14 874.76 1154.8 874.471 1185.19C874.218 1211.34 783.844 1209.41 758.715 1212.73C733.28 1216.06 709.603 1223.41 684.107 1226.26C652.28 1229.81 619.719 1229.86 587.552 1230.73C548.206 1231.79 510.748 1232.21 495.744 1260.4C487.219 1276.44 485.427 1293.8 480.321 1310.4C477.007 1321.16 471.341 1341.45 449.753 1341.68Z" stroke="#F45B0F" stroke-opacity="0.1"/>
<path fill-rule="evenodd" clip-rule="evenodd" d="M437.598 1328.83C380.32 1331.57 307.008 1347.76 247.882 1332.45C197.355 1319.37 190.805 1278.46 164.264 1250.92C142.372 1228.18 106.548 1218.06 71.3541 1206.69C43.1223 1197.58 14.619 1188.73 -12.711 1178.38C-32.8516 1170.75 -66.8542 1159.11 -71.0224 1143.24C-74.7703 1128.99 -44.752 1113.69 -29.4802 1105.69C-7.18542 1094.01 17.027 1084.03 40.7317 1073.71C82.3702 1055.58 119.814 1037.02 150.402 1010.5C181.12 983.849 204.089 954.698 227.996 925.235C246.7 902.186 265.947 879.254 287.542 857.355C303.619 841.042 324.198 817.588 352.867 810.124C375.547 804.215 413.184 834.183 426.468 843.02C453.78 861.21 479.42 880.486 504.902 899.797C535.954 923.339 563.109 947.633 598.53 968.423C661.859 1005.61 740.723 1036.69 787.79 1084.54C816.18 1113.39 823.439 1145.51 819.192 1177.61C817.511 1190.32 790.741 1193.37 775.128 1194.97C749.19 1197.63 722.806 1197.97 696.764 1200.02C672.385 1201.94 649.223 1206.2 625.317 1209.63C601.096 1213.1 576.279 1214.08 551.891 1216.63C536.751 1218.22 519.132 1219.79 506.96 1226.72C494.359 1233.89 489.079 1245.72 485.068 1256.06C477.608 1275.47 478.019 1326.89 437.598 1328.83Z" stroke="#F45B0F" stroke-opacity="0.1"/>
<path fill-rule="evenodd" clip-rule="evenodd" d="M413.62 1312.29C361.043 1316.9 295.558 1323.35 247.118 1304.57C207.51 1289.23 198.966 1256.5 173.158 1233.12C151.697 1213.68 117.564 1206.33 85.8447 1196.68C59.8273 1188.76 33.6962 1180.8 8.93813 1171.2C-9.83812 1163.92 -35.2958 1154.54 -41.8461 1140.08C-47.4431 1127.73 -22.3702 1113.77 -9.89059 1106.91C11.3781 1095.25 35.2092 1085.74 58.7254 1076.29C97.2049 1060.84 138.308 1046.62 169.608 1024.63C199.98 1003.26 217.908 977.873 238.066 952.012C253.51 932.204 269.549 912.519 287.967 893.856C302.1 879.525 318.847 861.766 342.363 854.298C362.644 847.84 386.65 864.42 400.957 872.703C424.569 886.382 446.232 901.564 467.981 916.535C491.445 932.691 513.09 950.586 537.131 966.22C587.723 999.096 643.737 1025.36 682.496 1065.88C707.604 1092.13 730.412 1127.44 726.31 1158.46C723.354 1180.77 649.701 1179.3 626.167 1181.44C587.688 1184.97 547.258 1191.77 511.813 1202.58C481.44 1211.86 472.074 1233.92 465.262 1254.21C460.985 1266.92 458.676 1280.24 452.065 1292.53C444.404 1306.76 435.659 1310.36 413.62 1312.29Z" stroke="#F45B0F" stroke-opacity="0.1"/>
<path fill-rule="evenodd" clip-rule="evenodd" d="M388.976 1296.86C344.524 1299.6 291.96 1298.98 253.508 1281.21C219.828 1265.63 210.96 1237.9 184.428 1218.17C163.729 1202.78 129.978 1196.73 102.604 1188.45C69.1338 1178.34 7.31601 1164.16 -5.27909 1138.63C-16.9883 1114.89 57.8104 1090.06 80.115 1081.46C115.418 1067.85 154.133 1056.47 186.735 1039.97C214.802 1025.75 230.318 1006.71 246.991 986.497C268.287 960.726 293.539 921.599 335.043 907.82C365.969 897.549 411.947 930.948 433.374 942.353C455.758 954.28 482.29 963.265 503.884 975.574C537.959 995 565.395 1026.48 586.331 1052.47C606.697 1077.73 629.238 1110.54 627.897 1139.2C627.019 1158.04 583.621 1161.63 562.421 1165.64C532.284 1171.4 505.278 1179.06 484.781 1195.51C463.915 1212.25 454.082 1231.98 445.478 1252.72C441.093 1263.37 437.672 1275.51 428.813 1285.04C419.174 1295.56 406.061 1295.8 388.976 1296.86Z" stroke="#F45B0F" stroke-opacity="0.1"/>
<path fill-rule="evenodd" clip-rule="evenodd" d="M363.354 1278.06C324.952 1277.91 284 1272.02 254.378 1254.57C229.704 1240.03 221.457 1217.28 196.233 1203.36C176.264 1192.34 148.23 1186.73 125.04 1179.35C96.6221 1170.32 46.978 1157.56 37.1155 1135.12C27.5149 1113.21 82.1949 1093.84 103.831 1085.44C135.557 1073.14 169.185 1063.19 200.824 1050.77C225.646 1041.05 241.644 1029.16 257.642 1013.33C276.433 994.749 297.249 968.821 328.338 958.894C350.847 951.737 386.815 969.061 406.644 975.351C419.963 979.568 433.491 983.428 447.927 985.548C459.169 987.199 469.572 987.363 479.225 992.148C503.506 1004.2 506.674 1030.61 514.678 1048.53C525.3 1072.33 537.37 1097.59 539.674 1122.5C541.114 1137.81 520.072 1145.62 505.269 1154.36C487.77 1164.68 475.184 1179.3 461.979 1192.07C444.523 1208.92 433.666 1227.26 422.546 1246.23C417.528 1254.78 412.605 1264.83 402.629 1271.46C392.287 1278.39 377.214 1278.11 363.354 1278.06Z" stroke="#F45B0F" stroke-opacity="0.1"/>
<path fill-rule="evenodd" clip-rule="evenodd" d="M340.556 1258.31C308.303 1255.29 277.477 1245.86 254.677 1229.94C237.172 1217.73 227.316 1201.52 206.284 1191.72C186.678 1182.6 164.386 1176.23 143.424 1168.69C121.262 1160.72 84.2217 1148.86 78.1913 1130.46C71.6969 1110.62 109.061 1095.35 129.77 1086.89C155.94 1076.2 184.097 1068.08 211.168 1058.52C231.346 1051.32 249.799 1042.14 265.915 1031.28C282.903 1019.89 299.174 1004.44 322.535 998.675C343.226 993.581 368.258 1003.11 389.238 1004.8C411.653 1006.6 435.197 1003.44 454.444 1013.42C494.136 1034 486.775 1085.64 487.624 1115.17C488.5 1144.3 464.212 1167.72 441.105 1191.3C425.849 1206.87 412.931 1223.08 398.717 1239.05C384.214 1255.32 368.941 1260.97 340.556 1258.31Z" stroke="#F45B0F" stroke-opacity="0.1"/>
<path fill-rule="evenodd" clip-rule="evenodd" d="M322.096 1239.97C275.371 1231.02 250.536 1203.08 215.225 1183.11C186.318 1166.76 126.453 1154.51 118.534 1126.98C109.546 1095.73 188.867 1077.03 219.474 1066.16C253.418 1054.11 281.03 1032.63 316.963 1023.71C335.823 1019.01 353.421 1023.04 372.272 1025.54C392.972 1028.28 414.136 1030.34 430.797 1039.8C463.586 1058.41 463.358 1094.76 464.26 1120.95C465.197 1148.05 442.728 1172.02 420.303 1193.62C396.555 1216.52 370.012 1249.13 322.096 1239.97Z" stroke="#F45B0F" stroke-opacity="0.1"/>
<path fill-rule="evenodd" clip-rule="evenodd" d="M309.426 1224.98C276.135 1214.9 249.071 1193.72 223.522 1176.53C202.223 1162.18 159.345 1146.75 156.288 1124.87C152.683 1099.17 198.47 1083.58 226.544 1073.47C254.13 1063.51 283.258 1049.16 313.536 1043.65C345.076 1037.9 387.553 1053.21 409.871 1067.81C434.758 1084.1 443.954 1110.74 442.961 1133.6C441.951 1157.54 421.383 1179.5 400.049 1197.63C377.243 1217.01 348.071 1236.71 309.426 1224.98Z" stroke="#F45B0F" stroke-opacity="0.1"/>
<path fill-rule="evenodd" clip-rule="evenodd" d="M303.158 1211.08C275.47 1201.45 252.047 1184.76 231.154 1169.37C215.024 1157.49 187.597 1139.97 186.925 1122.83C186.184 1103.98 209.205 1088.01 232.803 1080.51C256.077 1073.13 285.257 1065.34 310.791 1064.24C366.395 1061.84 428.682 1110.73 423.613 1147.44C418.807 1182.25 358.326 1230.28 303.158 1211.08Z" stroke="#F45B0F" stroke-opacity="0.1"/>
<path fill-rule="evenodd" clip-rule="evenodd" d="M300.105 1198.22C264.029 1184.94 212.598 1152.67 211.376 1122.8C209.98 1088.51 267.214 1079.9 308.69 1084.37C351.022 1088.91 412.294 1128.44 404.015 1159.97C395.936 1190.73 342.89 1213.96 300.105 1198.22Z" stroke="#F45B0F" stroke-opacity="0.1"/>
<path fill-rule="evenodd" clip-rule="evenodd" d="M294.272 1184.65C264.066 1173.4 226.337 1149.4 225.195 1124.37C223.844 1094.54 272.164 1095.1 302.24 1101.87C333.465 1108.9 386.799 1139.87 378.378 1165.99C370.157 1191.39 323.222 1195.42 294.272 1184.65Z" stroke="#F45B0F" stroke-opacity="0.1"/>
<path fill-rule="evenodd" clip-rule="evenodd" d="M290.796 1172.82C269.242 1165.4 242.001 1146.82 241.13 1129.15C240.082 1107.56 278.408 1111.76 296.906 1117.34C318.917 1123.97 357.164 1146.19 350.965 1164.84C344.864 1183.21 308.554 1178.95 290.796 1172.82Z" stroke="#F45B0F" stroke-opacity="0.1"/>
<path fill-rule="evenodd" clip-rule="evenodd" d="M1522.27 157.218C1565.52 205.004 1601.21 259.026 1637.49 309.967C1690.51 384.412 1742.09 459.953 1781.58 538.176C1802.75 580.114 1833.27 634.457 1816.68 679.457C1810.62 695.91 1792.29 710.914 1780.38 725.666C1763.95 746.007 1748.34 766.648 1732.69 787.253C1701.33 828.587 1670.28 870.05 1636.9 910.675C1620.82 930.236 1600.57 949.217 1586.86 969.582C1578.84 981.483 1582.59 995.724 1583.1 1008.44C1584.28 1037.9 1586.52 1067.34 1588.43 1096.77C1590.75 1132.78 1593.23 1168.87 1592.31 1204.92C1591.89 1221.18 1596.19 1261 1575.31 1269.95C1564.06 1274.77 1543.77 1263.42 1534.39 1258.16C1517.14 1248.5 1501.6 1237.39 1486.21 1226.44C1450.63 1201.1 1416.75 1174.19 1377 1151.66C1356.57 1140.09 1331.61 1124.93 1303.71 1132.48C1275.54 1140.11 1251.15 1153.32 1223.07 1161.38C1190.76 1170.66 1157.14 1174.5 1122.88 1178.89C1097.56 1182.13 1075.12 1189.68 1051.78 1196.79C1025.98 1204.63 999.955 1212.76 972.744 1218.21C954.77 1221.81 922.434 1227.63 911.054 1215.03C894.873 1197.13 907.975 1163.56 912.742 1143.15C919.32 1114.95 927.699 1086.96 934.915 1058.83C940.163 1038.41 945.918 1017.92 946.53 997.167C947.519 963.704 944.099 930.13 940.915 896.756C935.02 834.957 927.026 773.601 927.026 711.594C927.026 657.269 1020.76 531.729 1037.27 502.343C1070.22 443.689 1101.45 383.473 1145.29 327.968C1157.16 312.953 1172.97 289.843 1197.4 281.942C1212.45 277.068 1221.16 279.308 1230.86 267.812C1244.09 252.128 1249.28 232.033 1255.21 214.671C1264.74 186.71 1272.81 158.532 1281.45 130.443C1298.86 73.6295 1318.56 17.2035 1337.51 -39.3749C1343.24 -56.4786 1344.51 -77.1721 1354.6 -93.4781C1361.08 -103.989 1369.24 -102.898 1379.09 -94.7627C1396.38 -80.4919 1405.97 -60.4906 1415.83 -43.6332C1430.27 -18.9337 1443.15 6.17054 1455.85 31.2865C1468.55 56.4025 1480.86 81.6476 1493.59 106.775C1501.97 123.375 1508.78 142.303 1522.27 157.218Z" stroke="#F45B0F" stroke-opacity="0.1"/>
<path fill-rule="evenodd" clip-rule="evenodd" d="M1512.76 196.542C1556.09 247.09 1590.61 303.199 1624.29 357.291C1667.42 426.518 1707.84 497.312 1734.81 570.253C1750.62 613.081 1768.09 663.611 1749.95 707.371C1743.48 722.982 1728.93 734.645 1716.09 748.027C1701.43 763.281 1688.01 779.121 1674.79 794.961C1647.58 827.569 1621.31 860.52 1595.96 893.816C1582.48 911.451 1564.42 930.864 1559.75 950.788C1556.02 966.628 1561.41 984.621 1562.98 1000.53C1565.8 1029.19 1568.71 1057.83 1571.18 1086.5C1574.02 1119.57 1576.65 1152.74 1576.2 1185.89C1575.94 1204.37 1580.14 1236.08 1562.33 1249.15C1546.79 1260.55 1490.59 1219.04 1479.92 1211.75C1446.58 1188.95 1414.84 1164.98 1379.19 1143.77C1358.16 1131.23 1332.6 1115.97 1304.73 1110.68C1280.99 1106.18 1253.93 1114.86 1231.98 1119.99C1204.49 1126.4 1175.98 1131.58 1149.07 1139.03C1125.09 1145.66 1103.72 1156.22 1081.92 1165.5C1057.94 1175.7 1033.56 1186.03 1007.4 1193.61C991.299 1198.25 964.338 1205.93 948.993 1196.7C931.299 1186.05 942.861 1153.21 945.384 1139.71C950.569 1112.32 958.277 1085.15 965.179 1057.95C976.636 1012.78 986.657 969.708 984.257 923.707C981.121 863.802 973.746 803.955 969.664 744.062C968.14 721.944 965.074 699.474 966.73 677.339C967.684 664.649 973.465 654.987 986.508 647.606C1004.31 637.527 1014.16 614.313 1024.37 598.167C1040.29 572.993 1055.09 547.502 1070.09 522.082C1103.02 466.277 1134.76 409.399 1177.36 356.475C1190.83 339.732 1205.85 320.559 1228.11 308.174C1240.52 301.263 1252.48 303.006 1265.67 298.788C1283.02 293.202 1290.85 274.84 1296.53 263.863C1307.49 242.678 1314.84 220.625 1321.73 198.742C1337.3 149.227 1347.54 99.5941 1355.08 49.275C1356.83 37.4829 1362.9 -8.95241 1392.16 15.4356C1424.49 42.3816 1440.33 81.2899 1458.55 113.011C1474.93 141.588 1490.17 170.189 1512.76 196.542Z" stroke="#F45B0F" stroke-opacity="0.1"/>
<path fill-rule="evenodd" clip-rule="evenodd" d="M1504.75 266.398C1542.87 313.911 1571.31 366.546 1598.52 417.718C1631.53 479.814 1660.96 543.466 1677.44 608.592C1687.79 649.504 1695.74 694.609 1678.55 735.244C1666.81 762.995 1635.08 784.461 1613.25 808.834C1591.42 833.207 1570.93 858.567 1553.85 884.684C1543.25 900.894 1532.58 918.331 1533.98 936.367C1537.37 980.221 1545.46 1024.02 1549.39 1067.92C1552.01 1096.97 1554.17 1126.07 1553.52 1155.2C1553.14 1172.76 1554.71 1196.9 1540.93 1212.45C1525.69 1229.64 1395.54 1138.11 1380.89 1129.46C1344.16 1107.77 1295.41 1081.5 1243.18 1085.7C1193.24 1089.71 1155.96 1107.09 1116.83 1126.75C1094.57 1137.91 1035.11 1173.7 1006.17 1160.44C989.622 1152.86 995.35 1127.89 996.478 1116.02C998.699 1092.64 1003.47 1069.39 1007.62 1046.13C1013.63 1012.22 1022.91 977.379 1025.63 943.321C1027.52 919.606 1024.99 895.749 1024.94 871.993C1024.87 837.929 1025.25 803.865 1025.7 769.802C1026.09 741.2 1025.7 712.357 1029.8 683.855C1032.32 666.136 1037.97 652.687 1053.96 639.978C1067.87 628.919 1076.01 612.233 1084.85 598.138C1099.45 574.857 1112.97 551.271 1126.72 527.761C1155.51 478.539 1183.7 428.753 1219.68 381.639C1236.09 360.132 1259.07 323.972 1298.87 318.927C1313.23 317.106 1319.43 315.767 1327.59 306.37C1339.16 293.033 1344.39 277.058 1348.92 262.093C1359.51 227.207 1357.92 191.311 1368.38 156.484C1372.69 142.301 1382 123.783 1403.3 139.975C1428.22 158.869 1441.91 186.372 1457.31 209.007C1464.98 220.307 1472.17 231.947 1481.55 242.677C1488.77 250.917 1498.03 257.971 1504.75 266.398Z" stroke="#F45B0F" stroke-opacity="0.1"/>
<path fill-rule="evenodd" clip-rule="evenodd" d="M1492.85 356.389C1523.81 400.285 1546.32 447.958 1566.62 494.774C1589.13 546.774 1607.77 600.029 1615.71 653.988C1621.2 691.246 1622.82 730.944 1606 767.106C1595.36 789.975 1572.98 805.479 1554.21 825.158C1525.84 854.858 1503.37 886.991 1508.84 922.672C1514.96 962.675 1519.55 1002.81 1522.61 1043.07C1524.46 1067.36 1525.84 1091.74 1524.55 1116.06C1523.75 1131.43 1522.39 1151.24 1512 1164.62C1498.09 1182.51 1392.23 1115.29 1376.8 1106.91C1338.54 1086.13 1298.39 1070.9 1250.98 1062C1212.29 1054.74 1181.88 1069.57 1152.94 1084.86C1134.97 1094.38 1089.78 1125.11 1066.44 1115.49C1053.57 1110.21 1054.24 1092.82 1053.58 1083.47C1052.33 1065.67 1053.63 1047.79 1054.2 1029.99C1055.08 1003.7 1049.06 975.722 1053.9 949.657C1064.63 891.893 1073.93 834.276 1081.28 776.154C1085.33 744.114 1089.01 711.881 1096.82 680.129C1099.63 668.729 1102.6 656.955 1108.95 646.154C1113.02 639.205 1119.97 635.417 1125.66 629.553C1152.79 601.595 1166.74 565.099 1184.13 533.61C1207.23 491.749 1229.98 449.664 1257.28 408.917C1271.64 387.485 1288.14 357.55 1317.44 342.803C1326.3 338.346 1333.38 340.246 1341.89 337.443C1351.71 334.218 1354.64 324.42 1357.37 318.093C1363.59 303.733 1372.99 243.623 1409.45 271.323C1426.81 284.54 1437.95 301.381 1451.6 316.281C1456.55 321.676 1461.52 326.935 1468.19 331.433C1479.37 338.956 1485.76 346.368 1492.85 356.389Z" stroke="#F45B0F" stroke-opacity="0.1"/>
<path fill-rule="evenodd" clip-rule="evenodd" d="M1479.44 452.274C1529.54 538.931 1563.66 640.49 1557.05 734.967C1554.84 766.386 1547.48 800.189 1522.27 827.424C1507.39 843.483 1490.58 856.315 1485.2 875.606C1481.32 889.532 1485.73 904.527 1487.32 918.535C1489.64 938.824 1491.7 959.125 1493.38 979.444C1495.42 1004.63 1496.99 1029.91 1496.15 1055.14C1495.55 1073.18 1496.23 1098.08 1481.78 1113.74C1464.55 1132.45 1383.7 1084.84 1369.29 1078.14C1334.37 1061.91 1300.54 1050.52 1258.46 1046.41C1246.2 1045.2 1233.64 1041.12 1221.28 1041.65C1208.66 1042.2 1197.42 1047.42 1187.5 1052.23C1174.5 1058.52 1143.65 1080.36 1127.79 1074.1C1119.03 1070.65 1117.93 1057.68 1116.07 1050.96C1112.57 1038.35 1110.69 1025.56 1107.9 1012.87C1103.16 991.348 1087.7 969.978 1088.14 948.378C1089.29 890.295 1116.16 831.372 1130.92 774.453C1139.72 740.614 1147.71 706.546 1159.63 673.118C1163.4 662.542 1167.31 651.648 1173.71 641.594C1178.17 634.579 1186.14 630.072 1191.14 623.573C1210.34 598.654 1222 569.997 1234.92 543.239C1251.74 508.501 1268.04 473.645 1285.94 439.148C1297.16 417.525 1307.03 389.72 1327.84 371.088C1343.03 357.479 1347.58 366.781 1361.73 373.961C1368.95 377.628 1376.06 376.782 1384.23 378.374C1395.9 380.648 1404.29 387.076 1411.84 393.105C1422.27 401.419 1430.86 412.495 1443.65 419.293C1448.15 421.691 1453.74 421.579 1457.66 423.518C1469.09 429.159 1474.73 444.125 1479.44 452.274Z" stroke="#F45B0F" stroke-opacity="0.1"/>
<path fill-rule="evenodd" clip-rule="evenodd" d="M1461.6 544.409C1493.09 614.741 1511.02 692.997 1502.7 767.34C1499.8 793.207 1493.06 819.232 1478.27 843.327C1471.56 854.289 1464.07 862.518 1463.67 874.53C1462.74 902.403 1465.99 930.363 1466.77 958.229C1467.33 978.172 1467.53 998.214 1465.14 1018.11C1463.55 1031.41 1461.64 1049.4 1449.47 1060.3C1431.75 1076.14 1371.5 1047.55 1354.86 1041.73C1327.25 1032.09 1296.57 1022.52 1264.62 1026.34C1254.86 1027.52 1246.23 1029.59 1236.27 1029.86C1227.71 1030.12 1219.81 1029.4 1211.62 1031.44C1201.48 1033.95 1185.74 1045.14 1176.4 1041.3C1170.02 1038.67 1169.72 1030.9 1167.68 1025.72C1164.37 1017.33 1160.03 1009.14 1154.7 1001.23C1149.06 992.9 1140.34 985.809 1135.68 977.181C1128.13 963.174 1127.42 947.496 1127.45 932.774C1127.59 874.032 1144.88 814.545 1162.95 757.293C1172.36 727.479 1182.39 697.501 1196.66 668.526C1201 659.728 1205.35 649.757 1213.36 642.021C1218.34 637.193 1224.59 633.92 1228.34 628.436C1260.35 581.589 1272.24 527.429 1295.36 477.696C1301.37 464.751 1331.78 393.011 1360.39 430.521C1377.77 453.308 1385.67 477.385 1409.44 498.178C1416.67 504.512 1422.65 508.736 1433.68 511.211C1441.03 512.841 1437.3 508.917 1444.98 514.396C1454.2 521.041 1457.92 536.215 1461.6 544.409Z" stroke="#F45B0F" stroke-opacity="0.1"/>
<path fill-rule="evenodd" clip-rule="evenodd" d="M1442.97 617.538C1468.68 699.881 1469.9 787.081 1447.11 870.724C1441.37 891.81 1442.75 913.754 1441.29 935.098C1439.89 955.837 1442.8 992.709 1419.01 1007.77C1401.77 1018.69 1365.13 1006.84 1345.84 1002.74C1321.27 997.52 1295.89 992.956 1272.02 1001.53C1258.05 1006.55 1244.75 1013.44 1230.9 1018.82C1224.29 1021.4 1214.16 1026.7 1207.89 1024.49C1197.56 1020.83 1193.21 1003.72 1188.34 995.414C1172.76 968.87 1168.79 940.762 1168.9 912.383C1169.1 859.966 1179.79 807.279 1194.29 755.862C1200.97 732.206 1208.09 708.221 1219.69 685.406C1226.25 672.496 1238.9 662.973 1246.41 650.645C1270.58 610.95 1283.5 568.303 1305.61 527.926C1312.01 516.239 1333.32 472.585 1358.45 494.577C1382.78 515.868 1379.89 546.923 1402.77 569.062C1405.4 571.567 1408.53 574.667 1412.77 576.119C1415.3 576.978 1420.12 575.467 1421.56 576.119C1437.22 582.919 1439.71 607.086 1442.97 617.538Z" stroke="#F45B0F" stroke-opacity="0.1"/>
<path fill-rule="evenodd" clip-rule="evenodd" d="M1425.98 670.886C1434.62 713.13 1436.77 756.303 1437.31 799.259C1437.61 822.739 1439.84 848.536 1430.97 871.51C1425.51 885.623 1420.73 899.253 1417.29 913.801C1413.58 929.454 1410.89 954.657 1390.8 964.189C1375.79 971.31 1344.94 966.43 1326.69 966.171C1306.68 965.894 1291.83 968.646 1277.51 978.12C1268.49 984.076 1235.75 1011.4 1226.31 1008.24C1217.32 1005.24 1215.94 986.199 1213.6 977.967C1206.19 951.946 1203.61 925.579 1204.01 899.112C1204.63 858.121 1210.86 816.976 1221.58 776.626C1226.03 759.943 1230.64 742.702 1239.53 726.767C1245.53 716.035 1256.17 707.085 1262.37 696.425C1280.15 665.894 1292.23 633.611 1310.34 602.975C1316.16 593.143 1331.66 561.107 1355.55 568.787C1375.49 575.191 1381.56 596.971 1394.93 607.673C1417.73 625.879 1421.24 647.671 1425.98 670.886Z" stroke="#F45B0F" stroke-opacity="0.1"/>
<path fill-rule="evenodd" clip-rule="evenodd" d="M1414.52 697.499C1420.24 731.01 1422.74 765.299 1422.87 799.302C1422.95 821.246 1423.39 844.396 1416.03 865.93C1412.34 876.747 1403.71 886.147 1397.55 896.384C1391.22 906.926 1384.15 921.473 1369.63 926.029C1355.98 930.31 1336.07 928.712 1319.62 932.471C1305.01 935.815 1296 942.814 1286.13 950.351C1279.82 955.153 1252.52 979.815 1246.49 976.963C1240.04 973.906 1240.56 959.095 1239.67 951.388C1237.17 930.153 1236.37 908.844 1237.28 887.553C1238.61 858.493 1242.32 829.211 1250.72 800.655C1256.67 780.397 1270.84 765.118 1281.23 746.231C1294.73 721.762 1305.4 696.416 1320.17 672.182C1327.52 660.106 1336.99 642.232 1355.98 636.047C1363.26 633.67 1381.77 631.362 1389.05 634.009C1397.79 637.189 1401.5 649.025 1403.75 654.612C1409.36 668.609 1412.09 683.256 1414.52 697.499Z" stroke="#F45B0F" stroke-opacity="0.1"/>
<path fill-rule="evenodd" clip-rule="evenodd" d="M1400.55 728.893C1407.58 770.783 1413.55 818.113 1399.4 860.131C1393.69 877.112 1376.77 894.022 1353.7 900.946C1341.77 904.534 1327.58 905.306 1316.02 910.664C1307.48 914.631 1299.76 919.68 1292.57 924.658C1288.51 927.463 1266.27 945.431 1262.29 941.966C1258.1 938.308 1259.47 929.333 1259.37 923.203C1259.11 908.519 1259.96 893.777 1261.62 879.14C1263.53 862.311 1266.01 845.085 1272.73 828.765C1278.18 815.6 1289.65 803.604 1296.46 790.784C1314.5 757.08 1328.63 721.565 1355.34 689.924C1361.02 683.193 1369.52 669.882 1382.35 677.969C1398.34 688.031 1398.39 715.95 1400.55 728.893Z" stroke="#F45B0F" stroke-opacity="0.1"/>
<path fill-rule="evenodd" clip-rule="evenodd" d="M1387.88 765.408C1392.8 795.237 1395.12 828.327 1384.97 858.275C1379.84 873.44 1369.15 886.97 1348.45 893.575C1333.7 898.301 1317.24 899.577 1303.07 906.034C1298.07 908.321 1284.03 916.722 1280.97 912.58C1274.38 903.719 1281.96 883.939 1285.42 871.644C1290.66 853.141 1305.32 837.692 1314.01 820.098C1327.34 793.11 1334.46 758.915 1357.18 734.321C1379.15 710.618 1386.44 756.706 1387.88 765.408Z" stroke="#F45B0F" stroke-opacity="0.1"/>
<path fill-rule="evenodd" clip-rule="evenodd" d="M1375.84 799.516C1380.27 824.825 1382.46 869.837 1346.83 884.275C1340.22 886.954 1303.69 894.352 1300.43 887.203C1297.76 881.312 1302.18 872.065 1306.31 865.409C1313.95 853.027 1322.29 841.41 1328.6 828.613C1333.97 817.719 1338.92 806.563 1345.16 795.812C1347.77 791.248 1350.95 782.671 1356.91 779.808C1372.95 772.103 1374.5 791.811 1375.84 799.516Z" stroke="#F45B0F" stroke-opacity="0.1"/>
</svg>
