<svg width="253" height="56" viewBox="0 0 253 56" fill="none" xmlns="http://www.w3.org/2000/svg">
<path d="M75.8276 1.00153V55.9998C72.1778 56.0126 68.5615 55.3107 65.1858 53.9344C61.8102 52.5581 58.7417 50.5345 56.1564 47.9796C53.5711 45.4247 51.5198 42.3889 50.1202 39.0461C48.7205 35.7034 48 32.1195 48 28.5C48 24.8805 48.7205 21.2966 50.1202 17.9539C51.5198 14.6111 53.5711 11.5753 56.1564 9.0204C58.7417 6.46554 61.8102 4.44195 65.1858 3.06565C68.5615 1.68936 72.1778 0.987441 75.8276 1.00017V1.00153ZM77.2724 1.00153V24.9707H105C104.995 11.724 92.5822 1.00153 77.2665 1.00153H77.2724ZM77.2724 32.1565V55.9998C92.588 55.9998 105 45.3246 105 32.1565H77.2724Z" fill="#827F54"/>
<path fill-rule="evenodd" clip-rule="evenodd" d="M75.4966 1.67296C72.0497 1.70358 68.6393 2.38684 65.4492 3.68706C62.1549 5.02973 59.1605 7.00389 56.6375 9.49633C54.1145 11.9888 52.1127 14.9505 50.7468 18.2115C49.3809 21.4726 48.6777 24.9689 48.6777 28.5C48.6777 32.0311 49.3809 35.5274 50.7468 38.7885C52.1127 42.0496 54.1145 45.0112 56.6375 47.5037C59.1605 49.9961 62.1549 51.9703 65.4492 53.3129C68.6393 54.6132 72.0497 55.2964 75.4966 55.327V1.67296ZM65.1915 3.06565C68.5682 1.68936 72.1858 0.987441 75.8367 1.00017L76.1744 1.00135V55.9987L75.8367 55.9998C72.1858 56.0126 68.5682 55.3107 65.1915 53.9344C61.8147 52.5581 58.7453 50.5345 56.1591 47.9796C53.573 45.4247 51.521 42.3889 50.1209 39.0461C48.7207 35.7034 48 32.1195 48 28.5C48 24.8805 48.7207 21.2966 50.1209 17.9539C51.521 14.6111 53.573 11.5753 56.1591 9.0204C58.7453 6.46554 61.8147 4.44195 65.1915 3.06565ZM77.602 1.00333C92.7198 1.16283 104.994 11.8018 105 25.0137L105 25.3497H76.9243V1.33745H77.2573V1.00151C77.2593 1.00151 77.2612 1.00151 77.2631 1.00151H77.602V1.00333ZM77.602 1.67524C92.303 1.83304 104.108 12.0726 104.319 24.6779H77.602V1.67524ZM76.9243 31.7759H105V32.1119C105 45.348 92.5368 55.9998 77.2631 55.9998H76.9243V31.7759ZM77.602 32.4478V55.3262C92.3066 55.1717 104.112 44.9765 104.319 32.4478H77.602Z" fill="#2E1300"/>
<path d="M29.1731 1V54.9998C32.8228 55.0123 36.439 54.3233 39.8146 52.9723C43.1901 51.6212 46.2585 49.6348 48.8438 47.1268C51.429 44.6188 53.4802 41.6387 54.8799 38.3573C56.2795 35.0759 57 31.5578 57 28.0047C57 24.4517 56.2795 20.9336 54.8799 17.6522C53.4802 14.3708 51.429 11.3907 48.8438 8.8827C46.2585 6.37473 43.1901 4.38827 39.8146 3.03724C36.439 1.68621 32.8228 0.997184 29.1731 1.00968V1ZM27.7284 1V24.5292H0C0 11.534 12.4148 1 27.7273 1H27.7284ZM27.7284 31.5858V54.9998C12.4158 54.9998 0.00104654 44.5236 0.00104654 31.5968L27.7284 31.5858Z" fill="#E59A59"/>
<path fill-rule="evenodd" clip-rule="evenodd" d="M0.68046 24.1026H27.3987V0.685786C12.6975 0.843428 0.887075 11.2767 0.68046 24.1026ZM0 24.4446C0 10.9012 12.4641 0 27.7365 0H28.0764V24.7866H0V24.4446ZM29.1639 0.00991693C32.8148 -0.00304081 36.4322 0.711505 39.8089 2.11258C43.1855 3.51365 46.255 5.57369 48.8411 8.17455C51.4272 10.7754 53.4791 13.8659 54.8792 17.2689C56.2793 20.6718 57 24.3202 57 28.0049C57 31.6895 56.2793 35.3379 54.8792 38.7409C53.4791 42.1438 51.4272 45.2343 48.8411 47.8352C46.255 50.4361 43.1855 52.4961 39.8089 53.8972C36.4322 55.2982 32.8148 56.0128 29.1639 55.9998L28.8262 55.9986V0.341988H29.1651L29.1639 0.00991693ZM29.5039 0.694816V55.3149C32.9508 55.2838 36.3612 54.5882 39.5512 53.2646C42.8454 51.8977 45.8398 49.888 48.3627 47.3507C50.8856 44.8134 52.8874 41.7984 54.2533 38.4786C55.6192 35.1588 56.3223 31.5995 56.3223 28.0049C56.3223 24.4102 55.6192 20.851 54.2533 17.5312C52.8874 14.2114 50.8856 11.1964 48.3627 8.65904C45.8398 6.12173 42.8454 4.11202 39.5512 2.74518C36.3612 1.42154 32.9508 0.725988 29.5039 0.694816ZM28.0764 31.3311V55.9998H27.7375C12.467 55.9998 0.0010341 45.1593 0.0010341 31.6845V31.3426L28.0764 31.3311ZM0.681522 32.0263C0.889143 44.7809 12.6968 55.1568 27.3987 55.314V32.0153L0.681522 32.0263Z" fill="#2E1300"/>
<path d="M131 34.0023V47.9992C130.086 48.0129 129.178 47.842 128.329 47.4964C127.48 47.1509 126.708 46.6375 126.057 45.9862C125.405 45.3349 124.888 44.5587 124.535 43.7027C124.182 42.8467 124 41.928 124 41C124 40.0721 124.182 39.1534 124.535 38.2974C124.888 37.4413 125.405 36.6651 126.057 36.0138C126.708 35.3625 127.48 34.8491 128.329 34.5036C129.178 34.158 130.086 33.9871 131 34.0008V34.0023Z" fill="#827F54"/>
<path fill-rule="evenodd" clip-rule="evenodd" d="M131.366 34.6308C130.552 34.6551 129.748 34.8211 128.991 35.122C128.136 35.4613 127.359 35.9653 126.704 36.6047C126.048 37.2442 125.528 38.0062 125.172 38.8466C124.817 39.687 124.634 40.589 124.634 41.5C124.634 42.4111 124.817 43.313 125.172 44.1534C125.528 44.9938 126.048 45.7559 126.704 46.3953C127.359 47.0347 128.136 47.5387 128.991 47.878C129.748 48.1789 130.552 48.3449 131.366 48.3692V34.6308ZM128.754 34.5395C129.686 34.1692 130.684 33.9861 131.688 34.0008L132 34.0054V48.9946L131.688 48.9992C130.684 49.0139 129.686 48.8308 128.754 48.4605C127.822 48.0902 126.974 47.5402 126.259 46.8424C125.543 46.1445 124.975 45.3129 124.587 44.3957C124.2 43.4786 124 42.4942 124 41.5C124 40.5058 124.2 39.5215 124.587 38.6043C124.975 37.6872 125.543 36.8555 126.259 36.1577C126.974 35.4598 127.822 34.9098 128.754 34.5395Z" fill="#2E1300"/>
<path d="M132 34V40H138C138 36.699 135.314 34 132 34Z" fill="#827F54"/>
<path fill-rule="evenodd" clip-rule="evenodd" d="M131 34H131.321C135.497 34 139 36.5128 139 39.7079V40H131V34ZM131.643 34.5894V39.4158H138.346C138.144 36.8542 135.302 34.7087 131.643 34.5894Z" fill="#2E1300"/>
<path d="M132 42V48C135.314 48 138 45.3121 138 42H132Z" fill="#827F54"/>
<path fill-rule="evenodd" clip-rule="evenodd" d="M131 42H139V42.3406C139 46.0803 135.497 49 131.321 49H131V42ZM131.643 42.6813V48.3127C135.303 48.1741 138.145 45.68 138.346 42.6813H131.643Z" fill="#2E1300"/>
<path d="M227 43H242C242 45.7612 238.643 48 234.5 48C230.357 48 227 45.7612 227 43Z" fill="#DCC963"/>
<path fill-rule="evenodd" clip-rule="evenodd" d="M227 43H242V43.3446C242 44.9737 241.105 46.3956 239.752 47.3925C238.394 48.3926 236.537 49 234.5 49C232.463 49 230.606 48.3926 229.248 47.3925C227.895 46.3956 227 44.9737 227 43.3446V43ZM227.598 43.6893C227.713 44.8645 228.411 45.9638 229.555 46.8071C230.807 47.7291 232.554 48.3107 234.5 48.3107C236.446 48.3107 238.193 47.7291 239.445 46.8071C240.589 45.9638 241.287 44.8645 241.402 43.6893H227.598Z" fill="#2E1300"/>
<path d="M227 39H242C242 36.2388 238.643 34 234.5 34C230.357 34 227 36.2388 227 39Z" fill="#DCC963"/>
<path fill-rule="evenodd" clip-rule="evenodd" d="M229.248 35.3396C230.606 34.5061 232.463 34 234.5 34C236.537 34 238.394 34.5061 239.752 35.3396C241.105 36.1704 242 37.3553 242 38.7128V39H227V38.7128C227 37.3553 227.895 36.1704 229.248 35.3396ZM227.598 38.4256H241.402C241.287 37.4463 240.589 36.5302 239.445 35.8274C238.193 35.0591 236.446 34.5744 234.5 34.5744C232.554 34.5744 230.807 35.0591 229.555 35.8274C228.411 36.5302 227.713 37.4463 227.598 38.4256Z" fill="#2E1300"/>
<path d="M242 43H235V39C238.86 39 242 40.7896 242 43Z" fill="#DCC963"/>
<path fill-rule="evenodd" clip-rule="evenodd" d="M234 39H234.303C236.39 39 238.297 39.5062 239.691 40.34C241.081 41.1715 242 42.3565 242 43.7126V44H234V39ZM234.607 39.5785V43.4253H241.376C241.258 42.4437 240.54 41.5277 239.367 40.8259C238.149 40.0977 236.475 39.6249 234.607 39.5785Z" fill="#2E1300"/>
<path d="M235 39H227C227 41.2078 230.582 43 235 43V39Z" fill="#DCC963"/>
<path fill-rule="evenodd" clip-rule="evenodd" d="M227 39H235V44H234.706C232.614 44 230.706 43.494 229.312 42.6611C227.922 41.8313 227 40.6466 227 39.2874V39ZM227.606 39.5747C227.724 40.5513 228.441 41.4672 229.619 42.1708C230.843 42.9021 232.529 43.3768 234.412 43.4218V39.5747H227.606Z" fill="#2E1300"/>
<path d="M146.497 48C147.351 48 148.197 47.8448 148.986 47.5432C149.775 47.2417 150.493 46.7997 151.096 46.2425C151.7 45.6853 152.179 45.0238 152.506 44.2959C152.832 43.568 153 42.7878 153 42H140C140 43.5899 140.684 45.1149 141.902 46.2399C143.121 47.3648 144.773 47.9979 146.497 48V48Z" fill="#C56A19"/>
<path fill-rule="evenodd" clip-rule="evenodd" d="M139 41H153L153 41.3211C153 42.3294 152.82 43.3278 152.468 44.2595C152.116 45.1911 151.6 46.0376 150.95 46.7507C150.3 47.4638 149.527 48.0295 148.678 48.4154C147.828 48.8014 146.917 49 145.997 49V48.6787L145.997 49C144.14 48.9973 142.361 48.1871 141.049 46.7474C139.737 45.3076 139 43.3561 139 41.3213L139 41ZM145.997 48.3574C146.84 48.3574 147.675 48.1754 148.453 47.8218C149.232 47.4682 149.939 46.9498 150.535 46.2964C151.131 45.6431 151.604 44.8674 151.926 44.0138C152.211 43.2592 152.374 42.4567 152.407 41.6426H139.593C139.666 43.3902 140.331 45.05 141.464 46.2933C142.666 47.6126 144.296 48.355 145.997 48.3574Z" fill="#2E1300"/>
<path d="M153 34C150.238 34 148 37.5824 148 42H153V34Z" fill="#C56A19"/>
<path fill-rule="evenodd" clip-rule="evenodd" d="M147 41.6786C147 37.505 149.501 34 152.708 34H153V42H147V41.6786ZM147.589 41.3572H152.416V34.6542C149.845 34.8557 147.708 37.6986 147.589 41.3572Z" fill="#2E1300"/>
<path d="M140 42H145C145 37.5824 142.76 34 140 34V42Z" fill="#C56A19"/>
<path fill-rule="evenodd" clip-rule="evenodd" d="M139 34H139.292C142.497 34 145 37.5048 145 41.6786V42H139V34ZM139.584 34.6542V41.3572H144.411C144.292 37.6988 142.154 34.8557 139.584 34.6542Z" fill="#2E1300"/>
<path d="M190.501 48C191.355 48 192.2 47.8448 192.989 47.5432C193.778 47.2417 194.494 46.7997 195.098 46.2425C195.701 45.6853 196.18 45.0238 196.506 44.2959C196.833 43.568 197 42.7878 197 42H184C184 43.5913 184.685 45.1174 185.904 46.2426C187.123 47.3679 188.777 48 190.501 48V48Z" fill="#8C3B04"/>
<path fill-rule="evenodd" clip-rule="evenodd" d="M183 41H197L197 41.3211C197 42.3294 196.82 43.3278 196.468 44.2595C196.117 45.1911 195.601 46.0376 194.951 46.7507C194.301 47.4638 193.53 48.0295 192.68 48.4154C191.831 48.8014 190.921 49 190.001 49C188.145 49 186.364 48.191 185.051 46.751C183.738 45.3109 183 43.3578 183 41.3213V41ZM183.593 41.6426C183.665 43.3918 184.331 45.053 185.465 46.2966C186.668 47.6161 188.3 48.3574 190.001 48.3574C190.844 48.3574 191.678 48.1754 192.456 47.8218C193.234 47.4682 193.941 46.9498 194.537 46.2964C195.132 45.643 195.605 44.8674 195.927 44.0138C196.212 43.2592 196.374 42.4567 196.408 41.6426H183.593Z" fill="#2E1300"/>
<path d="M197 34C194.238 34 192 37.5824 192 42H197V34Z" fill="#8C3B04"/>
<path fill-rule="evenodd" clip-rule="evenodd" d="M191 41.6786C191 37.505 193.501 34 196.708 34H197V42H191V41.6786ZM191.589 41.3572H196.416V34.6542C193.845 34.8557 191.708 37.6986 191.589 41.3572Z" fill="#2E1300"/>
<path d="M184 42H189C189 37.5824 186.762 34 184 34V42Z" fill="#8C3B04"/>
<path fill-rule="evenodd" clip-rule="evenodd" d="M183 34H183.292C186.499 34 189 37.505 189 41.6786V42H183V34ZM183.584 34.6542V41.3572H188.411C188.292 37.6986 186.155 34.8557 183.584 34.6542Z" fill="#2E1300"/>
<path d="M214 34V48H220V34H214Z" fill="#B0BB9B"/>
<path fill-rule="evenodd" clip-rule="evenodd" d="M214 34H220V49H214V34ZM214.584 34.6277V48.3723H219.416V34.6277H214.584Z" fill="#2E1300"/>
<path d="M226 34H220V38H226V34Z" fill="#B0BB9B"/>
<path fill-rule="evenodd" clip-rule="evenodd" d="M220 34H227V39H220V34ZM220.681 34.6402V38.3598H226.319V34.6402H220.681Z" fill="#2E1300"/>
<path d="M226 39H220V43H226V39Z" fill="#B0BB9B"/>
<path fill-rule="evenodd" clip-rule="evenodd" d="M220 39H227V43H220V39ZM220.681 39.5122V42.4878H226.319V39.5122H220.681Z" fill="#2E1300"/>
<path d="M226 44H220V48H226V44Z" fill="#B0BB9B"/>
<path fill-rule="evenodd" clip-rule="evenodd" d="M220 43H227V49H220V43ZM220.681 43.7682V48.2318H226.319V43.7682H220.681Z" fill="#2E1300"/>
<path d="M174 34H169V40H174V34Z" fill="#DCC963"/>
<path fill-rule="evenodd" clip-rule="evenodd" d="M169 34H174V40H169V34ZM169.64 34.5839V39.4161H173.36V34.5839H169.64Z" fill="#2E1300"/>
<path d="M182 34H179V40H182V34Z" fill="#DCC963"/>
<path fill-rule="evenodd" clip-rule="evenodd" d="M178 34H183V40H178V34ZM178.64 34.5839V39.4161H182.36V34.5839H178.64Z" fill="#2E1300"/>
<path d="M174 34V48H179V34H174Z" fill="#DCC963"/>
<path fill-rule="evenodd" clip-rule="evenodd" d="M173 34H179V49H173V34ZM173.584 34.6277V48.3723H178.416V34.6277H173.584Z" fill="#2E1300"/>
<path d="M168 42H160V48H168V42Z" fill="#387B5C"/>
<path fill-rule="evenodd" clip-rule="evenodd" d="M160 42H168V49H160V42ZM160.558 42.6813V48.3187H167.442V42.6813H160.558Z" fill="#2E1300"/>
<path d="M154 34V48H159V34H154Z" fill="#387B5C"/>
<path fill-rule="evenodd" clip-rule="evenodd" d="M154 34H160V49H154V34ZM154.584 34.6277V48.3723H159.416V34.6277H154.584Z" fill="#2E1300"/>
<path d="M205 34V42H212C212 39.8783 211.262 37.8434 209.95 36.3432C208.637 34.8429 206.857 34 205 34Z" fill="#C56A19"/>
<path fill-rule="evenodd" clip-rule="evenodd" d="M204 34H204.321C206.358 34 208.311 34.809 209.751 36.249C211.191 37.689 212 39.6421 212 41.6786V42H204V34ZM204.643 34.6502V41.3572H211.35C211.27 39.6081 210.54 37.9471 209.296 36.7036C208.053 35.4601 206.392 34.7301 204.643 34.6502Z" fill="#2E1300"/>
<path d="M205 42V48H212C212 47.2122 211.82 46.432 211.468 45.7041C211.116 44.9762 210.601 44.3147 209.951 43.7575C209.301 43.2003 208.529 42.7583 207.68 42.4568C206.83 42.1552 205.92 42 205 42V42Z" fill="#C56A19"/>
<path fill-rule="evenodd" clip-rule="evenodd" d="M204.321 41C205.33 41 206.329 41.1986 207.261 41.5846C208.193 41.9705 209.039 42.5362 209.752 43.2493C210.465 43.9624 211.031 44.8089 211.416 45.7405C211.802 46.6722 212 47.6706 212 48.6789L212 49H204V41.3213H204.321V41ZM204.643 41.6499V48.3574H211.35C211.313 47.5433 211.135 46.7408 210.822 45.9862C210.469 45.1326 209.951 44.3569 209.298 43.7036C208.644 43.0502 207.868 42.5318 207.015 42.1782C206.26 41.8656 205.457 41.6871 204.643 41.6499Z" fill="#2E1300"/>
<path d="M199 34V48H204V34H199Z" fill="#C56A19"/>
<path fill-rule="evenodd" clip-rule="evenodd" d="M199 34H204V49H199V34ZM199.487 34.6277V48.3723H203.513V34.6277H199.487Z" fill="#2E1300"/>
<path d="M252 18H243V27H252V18Z" fill="#E59A59"/>
<path fill-rule="evenodd" clip-rule="evenodd" d="M243 17H253V27H243V17ZM243.643 17.6148V26.3852H252.357V17.6148H243.643Z" fill="#2E1300"/>
<path d="M120 8V27C117.348 27 114.804 25.9991 112.929 24.2175C111.054 22.4359 110 20.0196 110 17.5C110 14.9804 111.054 12.5641 112.929 10.7825C114.804 9.00089 117.348 8 120 8V8Z" fill="#E59A59"/>
<path fill-rule="evenodd" clip-rule="evenodd" d="M119.385 8.6077C117.089 8.68387 114.903 9.61115 113.274 11.2086C111.571 12.8772 110.615 15.1403 110.615 17.5C110.615 19.8597 111.571 22.1228 113.274 23.7914C114.903 25.3889 117.089 26.3161 119.385 26.3923V8.6077ZM119.693 8.3013V8C117.122 8 114.657 9.00089 112.839 10.7825C111.021 12.5641 110 14.9804 110 17.5C110 20.0196 111.021 22.4359 112.839 24.2175C114.657 25.9991 117.122 27 119.693 27H120V8.3013H119.693Z" fill="#2E1300"/>
<path d="M120 8V16H129C128.994 11.5843 124.966 8 120 8Z" fill="#E59A59"/>
<path fill-rule="evenodd" clip-rule="evenodd" d="M120 8H120.277C125.033 8 128.994 11.3946 129 15.7003L129 16H120V8ZM120.553 8.60256V15.4014H128.438C128.257 11.748 124.868 8.7269 120.553 8.60256Z" fill="#2E1300"/>
<path d="M120 19V27C124.972 27 129 23.4189 129 19H120Z" fill="#E59A59"/>
<path fill-rule="evenodd" clip-rule="evenodd" d="M120 19H129V19.2993C129 23.6086 125.038 27 120.277 27H120V19ZM120.554 19.5986V26.3975C124.874 26.2734 128.263 23.2543 128.439 19.5986H120.554Z" fill="#2E1300"/>
<path d="M138 8V27C135.613 27 133.324 25.9991 131.636 24.2175C129.948 22.4359 129 20.0196 129 17.5C129 14.9804 129.948 12.5641 131.636 10.7825C133.324 9.00089 135.613 8 138 8V8Z" fill="#E59A59"/>
<path fill-rule="evenodd" clip-rule="evenodd" d="M137.447 8.6077C135.38 8.68387 133.413 9.61115 131.946 11.2086C130.414 12.8772 129.553 15.1403 129.553 17.5C129.553 19.8597 130.414 22.1228 131.946 23.7914C133.413 25.3889 135.38 26.3161 137.447 26.3923V8.6077ZM137.723 8.3013V8C135.41 8 133.191 9.00089 131.555 10.7825C129.919 12.5641 129 14.9804 129 17.5C129 20.0196 129.919 22.4359 131.555 24.2175C133.191 25.9991 135.41 27 137.723 27H138V8.3013H137.723Z" fill="#2E1300"/>
<path d="M139 8V27C141.387 27 143.676 25.9991 145.364 24.2175C147.052 22.4359 148 20.0196 148 17.5C148 14.9804 147.052 12.5641 145.364 10.7825C143.676 9.00089 141.387 8 139 8V8Z" fill="#E59A59"/>
<path fill-rule="evenodd" clip-rule="evenodd" d="M139.277 8C141.59 8 143.809 9.00089 145.445 10.7825C147.081 12.5641 148 14.9804 148 17.5C148 20.0196 147.081 22.4359 145.445 24.2175C143.809 25.9991 141.59 27 139.277 27H139V8.3013H139.277V8ZM139.553 8.6077V26.3923C141.62 26.3161 143.587 25.3889 145.054 23.7914C146.586 22.1228 147.447 19.8597 147.447 17.5C147.447 15.1403 146.586 12.8772 145.054 11.2086C143.587 9.61115 141.62 8.68387 139.553 8.6077Z" fill="#2E1300"/>
<path d="M176 8V27C173.613 27 171.324 25.9991 169.636 24.2175C167.948 22.4359 167 20.0196 167 17.5C167 14.9804 167.948 12.5641 169.636 10.7825C171.324 9.00089 173.613 8 176 8V8Z" fill="#E59A59"/>
<path fill-rule="evenodd" clip-rule="evenodd" d="M175.447 8.6077C173.38 8.68387 171.413 9.61115 169.946 11.2086C168.414 12.8772 167.553 15.1403 167.553 17.5C167.553 19.8597 168.414 22.1228 169.946 23.7914C171.413 25.3889 173.38 26.3161 175.447 26.3923V8.6077ZM175.723 8.3013V8C173.41 8 171.191 9.00089 169.555 10.7825C167.919 12.5641 167 14.9804 167 17.5C167 20.0196 167.919 22.4359 169.555 24.2175C171.191 25.9991 173.41 27 175.723 27H176V8.3013H175.723Z" fill="#2E1300"/>
<path d="M177 8V27C179.387 27 181.676 25.9991 183.364 24.2175C185.052 22.4359 186 20.0196 186 17.5C186 14.9804 185.052 12.5641 183.364 10.7825C181.676 9.00089 179.387 8 177 8V8Z" fill="#E59A59"/>
<path fill-rule="evenodd" clip-rule="evenodd" d="M177.307 8C179.878 8 182.343 9.00089 184.161 10.7825C185.979 12.5641 187 14.9804 187 17.5C187 20.0196 185.979 22.4359 184.161 24.2175C182.343 25.9991 179.878 27 177.307 27H177V8.3013H177.307V8ZM177.615 8.6077V26.3923C179.911 26.3161 182.097 25.3889 183.726 23.7914C185.429 22.1228 186.385 19.8597 186.385 17.5C186.385 15.1403 185.429 12.8772 183.726 11.2086C182.097 9.61115 179.911 8.68387 177.615 8.6077Z" fill="#2E1300"/>
<path d="M167 19H157V27H167V19Z" fill="#E59A59"/>
<path fill-rule="evenodd" clip-rule="evenodd" d="M156 19H167V27H156V19ZM156.586 19.5986V26.4014H166.414V19.5986H156.586Z" fill="#2E1300"/>
<path d="M149 8V27H156V8H149Z" fill="#E59A59"/>
<path fill-rule="evenodd" clip-rule="evenodd" d="M148 8H156V27H148V8ZM148.599 8.6027V26.3973H155.401V8.6027H148.599Z" fill="#2E1300"/>
<path d="M196 8V18H204C204 16.6868 203.793 15.3864 203.391 14.1732C202.989 12.9599 202.4 11.8575 201.657 10.9289C200.914 10.0003 200.032 9.26375 199.061 8.7612C198.091 8.25865 197.051 8 196 8V8Z" fill="#E59A59"/>
<path fill-rule="evenodd" clip-rule="evenodd" d="M195.277 8C196.422 8 197.557 8.2507 198.615 8.7378C199.673 9.2249 200.635 9.93885 201.445 10.8389C202.255 11.7389 202.898 12.8074 203.336 13.9834C203.774 15.1594 204 16.4197 204 17.6926V18H195V8.30741H195.277V8ZM195.553 8.62002V17.3852H203.442C203.409 16.2979 203.2 15.2253 202.825 14.2187C202.414 13.1173 201.812 12.1166 201.054 11.2736C200.295 10.4307 199.394 9.76202 198.403 9.30582C197.497 8.88887 196.532 8.65686 195.553 8.62002Z" fill="#2E1300"/>
<path d="M196 18V27H204C204 25.8181 203.793 24.6478 203.391 23.5558C202.989 22.4639 202.4 21.4718 201.657 20.636C200.914 19.8003 200.032 19.1374 199.061 18.6851C198.091 18.2328 197.051 18 196 18V18Z" fill="#E59A59"/>
<path fill-rule="evenodd" clip-rule="evenodd" d="M195.277 17C196.422 17 197.557 17.2507 198.615 17.7378C199.673 18.2249 200.635 18.9389 201.445 19.8389C202.255 20.7389 202.898 21.8074 203.336 22.9834C203.774 24.1593 204 25.4197 204 26.6926V27H195V17.3074H195.277V17ZM195.553 17.62V26.3852H203.442C203.409 25.2979 203.2 24.2253 202.825 23.2187C202.414 22.1173 201.812 21.1166 201.054 20.2736C200.295 19.4307 199.394 18.762 198.403 18.3058C197.497 17.8889 196.532 17.6569 195.553 17.62Z" fill="#2E1300"/>
<path d="M187 8V27H195V8H187Z" fill="#E59A59"/>
<path fill-rule="evenodd" clip-rule="evenodd" d="M187 8H195V27H187V8ZM187.599 8.6027V26.3973H194.401V8.6027H187.599Z" fill="#2E1300"/>
<path d="M206 8V27H213V8H206Z" fill="#E59A59"/>
<path fill-rule="evenodd" clip-rule="evenodd" d="M206 8H214V27H206V8ZM206.599 8.6027V26.3973H213.401V8.6027H206.599Z" fill="#2E1300"/>
<path d="M243 8V27C240.613 27 238.324 25.9991 236.636 24.2175C234.948 22.4359 234 20.0196 234 17.5C234 14.9804 234.948 12.5641 236.636 10.7825C238.324 9.00089 240.613 8 243 8V8Z" fill="#E59A59"/>
<path fill-rule="evenodd" clip-rule="evenodd" d="M242.447 8.6077C240.38 8.68387 238.413 9.61115 236.946 11.2086C235.414 12.8772 234.553 15.1403 234.553 17.5C234.553 19.8597 235.414 22.1228 236.946 23.7914C238.413 25.3889 240.38 26.3161 242.447 26.3923V8.6077ZM242.723 8.3013V8C240.41 8 238.191 9.00089 236.555 10.7825C234.919 12.5641 234 14.9804 234 17.5C234 20.0196 234.919 22.4359 236.555 24.2175C238.191 25.9991 240.41 27 242.723 27H243V8.3013H242.723Z" fill="#2E1300"/>
<path d="M243 8V16H253C253 11.5843 248.521 8 243 8Z" fill="#E59A59"/>
<path fill-rule="evenodd" clip-rule="evenodd" d="M243 8H243.308C248.595 8 253 11.3944 253 15.7007V16H243V8ZM243.615 8.60255V15.4014H252.377C252.181 11.7484 248.413 8.72682 243.615 8.60255Z" fill="#2E1300"/>
<path d="M252 18H243V27H252V18Z" fill="#E59A59"/>
<path fill-rule="evenodd" clip-rule="evenodd" d="M243 17H253V27H243V17ZM243.643 17.6148V26.3852H252.357V17.6148H243.643Z" fill="#2E1300"/>
<path d="M234 18H215C215 15.3478 216.001 12.8043 217.783 10.9289C219.564 9.05356 221.98 8 224.5 8C227.02 8 229.436 9.05356 231.217 10.9289C232.999 12.8043 234 15.3478 234 18V18Z" fill="#E59A59"/>
<path fill-rule="evenodd" clip-rule="evenodd" d="M224.5 8.61482C222.14 8.61482 219.877 9.57122 218.209 11.2736C216.611 12.9035 215.684 15.0892 215.608 17.3852H233.392C233.316 15.0892 232.389 12.9035 230.791 11.2736C229.123 9.57122 226.86 8.61482 224.5 8.61482ZM233.699 17.6926H234C234 15.122 232.999 12.6566 231.217 10.8389C229.436 9.02118 227.02 8 224.5 8C221.98 8 219.564 9.02118 217.783 10.8389C216.001 12.6566 215 15.122 215 17.6926V18H233.699V17.6926Z" fill="#2E1300"/>
<path d="M222 18H215V27H222V18Z" fill="#E59A59"/>
<path fill-rule="evenodd" clip-rule="evenodd" d="M215 18H223V27H215V18ZM215.621 18.5992V26.4008H222.379V18.5992H215.621Z" fill="#2E1300"/>
<path d="M234 18H227V27H234V18Z" fill="#E59A59"/>
<path fill-rule="evenodd" clip-rule="evenodd" d="M226 18H234V27H226V18ZM226.621 18.5992V26.4008H233.379V18.5992H226.621Z" fill="#2E1300"/>
</svg>
